<svg width="654" height="654" viewBox="0 0 654 654" fill="none" xmlns="http://www.w3.org/2000/svg">
<path d="M454.87 25.3405L454.461 24.9609L453.928 24.7918C444.934 21.9349 435.917 20.5 426.886 20.5C399.95 20.5 374.015 30.2568 349.126 49.5499L349.114 49.5589L349.103 49.568C325.17 68.572 303.612 94.1576 284.399 126.254H283.486L298.803 28.9548L299.318 25.6816L296.029 26.0846L142.696 44.8699L140.479 45.1414L140.5 47.3745L144.46 473.842L144.475 475.457L145.954 476.107L230.489 513.288L233.629 514.67L233.982 511.257L253.803 319.376C287.687 331.725 323.775 337.892 362.048 337.892C417.14 337.892 456.524 327.215 479.437 305.19C502.264 283.249 513.5 251.666 513.5 210.853C513.5 170.283 508.215 133.379 497.61 100.164C487.02 66.9929 472.821 41.97 454.87 25.3405ZM377.444 290.4C365.206 295.05 350.746 297.409 334.01 297.409C304.671 297.409 279.917 290.838 259.621 277.823C272.508 194.876 295.672 141.816 328.47 117.557C340.151 109.21 348.426 104.022 353.419 101.82C358.177 99.721 365.224 97.1995 374.61 94.2551C383.185 116.363 387.586 154.413 387.586 208.766C387.586 234.6 384.211 261.81 377.444 290.4Z" fill="#59DAE2" stroke="black" stroke-width="5"/>
<path d="M145.5 628.116V506.817C145.934 506.871 146.413 506.932 146.932 507C149.564 507.34 153.236 507.847 157.392 508.507C165.738 509.833 175.908 511.761 183.538 514.187C192.441 517.017 203.316 522.252 212.048 526.836C216.396 529.118 220.178 531.221 222.873 532.753C224.201 533.508 225.264 534.124 225.999 534.553L229.408 616.075L145.5 628.116Z" fill="#59DAE2" stroke="black" stroke-width="5"/>
</svg>
